<svg id="Layer_1" data-name="Layer 1" xmlns="http://www.w3.org/2000/svg" viewBox="0 0 610.34 191.69">
  <defs>
    <style>
      .cls-1 {
        fill: #1df8ad;
      }

      .cls-2 {
        fill: #fff;
      }
    </style>
  </defs>
  <title>RacyMind_logo nowe RGB horizontal white</title>
  <path class="cls-1" d="M427.2,153.17c12.69-2.84,32.13-9.48,57.22-5,12,2.66,26.46,7,36.05,20,9.66,13.86,4.14,33-5.18,47.06-18.79,30.06-54.62,50.81-94.52,65.1-20.19,7-33.08,12.13-56.42,12.35-20.52,11-32.56,11-48.16-1.49-16.95.89-26.16-1.78-26.76-25.71-18.73-21.26-8.92-64.36,35.23-72.39,14.27-27.64,36.61-39.66,63.32-45.48s48.16,1.34,79.77,6.23c31.26-4.89,58.91-17.82,86.55,7.59,12.45,9.6,6,34.49.89,48.61,12,19.17-2.67,31.21-18.36,33.89-20.43,21.85-25.33,34.33-70.37,42.8-26.31,16.5-43.7,32.56-97.39,2.79-14-6.33-28-18.78-29.7-34.89-3.14-16,6.68-32.68,18.67-42.51,24.44-20,55.59-28,85.66-33.32a169.73,169.73,0,0,1,46.12-1.6c14.77,2.08,33.54,3.91,43.67,17.38,8.6,15.86-5.59,31.87-15.73,41.72-11.21,10.5-24.3,18.4-37.54,25.47-26.46,13.5-54.7,26.83-85,25.21-14.77-1-29.92-6.13-40.06-17.65-5.07-6.07-5.28-15.25-1.87-21.91,3.19-6.85,8.23-12.34,13.51-17.24,21.76-19,48.66-30.68,76-35.21,13.6-2.08,27.07-4.07,40.69-4.54,6.66.08,14-.48,20.33,3.61,6.14,3.31,10.53,10.92,9.27,18.07-2.52,14.08-12.51,23.89-21.41,33a190.57,190.57,0,0,1-30.1,23.42c-11,6.77-23.2,9.67-35.05,12.26-11.9,2.12-24.21,3.87-36.08,0-5.84-1.81-13.13-7.7-13.32-14.22-.59-6.31,2-11.93,4.46-17.24,5.6-10.29,15.15-18,23.72-24.62,34.45-25.56,75.93-40.51,111.12-28.9,18.7,5.88,24.84,27,21.72,41.88-2.53,16.28-14.69,26.45-23,35.2-4.28,4.52-8.08,9-10.71,13.69-4.05,8.4-1.06,9.33-1.06,9.33a52.46,52.46,0,0,1,6.4,3.89c1.42,1.29,5.53,3.44,3.5,8.25-4.38,4.72-7.85,4.71-10.91,6.68C488.1,321.15,488.56,337.31,487,337c-1.1,1.45-6.69-18.52,10-26.23,2.91-1.54,11-3.55,12.36-5.15,1.8.19-11.35-7.67-11.35-7.67s-5-2.9,2.7-13.63c2.92-5.13,7-9.83,11.42-14.42,8.7-9,19.81-18.38,22.08-33,2.7-14-2.33-32.22-19.17-37.66-32.71-11.1-73.89,3-107.59,28.12-8.38,6.46-16.39,14.12-21.58,23.62-5.09,9-6.11,23.28,5.75,26.54,21.44,5.28,47.21-1,68.27-11.87a187,187,0,0,0,29.59-23c8.76-8.74,18.4-18.73,20.51-31,1-6.09-2.31-11.94-7.85-15.09-5-3.41-12.08-3.13-18.58-3.15-13.27.44-26.78,2.41-40.3,4.46-26.65,4.36-53.3,15.91-74.45,34.39-9.85,8.59-18.85,23-9.52,34.76,9,10.35,22.08,16.15,36.14,17,29.2,1.62,57.16-11.4,83.46-24.84,13.12-7,26.06-14.81,36.94-25,10.06-9.51,21.24-24.87,13.72-38-8.66-11.82-25.54-14.44-40-16.32a166.62,166.62,0,0,0-45.41,1.58c-29.73,5.2-60.7,13.29-84.27,32.67-11.55,9.57-19.21,24.45-16.28,39.46,1.63,15.1,13.14,27.19,26.69,33.36,58.66,25.72,69.15,8.69,93.07-3.86,34.78-5.8,52.17-16.95,71.57-41.32,12.26-6.4,23.85-11.75,16.72-33.6,4.77-13.43,8.91-34.78,0-44.14-20.51-20.51-58.42-9.81-83.83-4.91-25.42-3.12-52.37-11.61-78.93-5.79-30.77,4.46-54.4,29.43-60.64,44.14-44.59,6.69-49.8,50.24-32.55,66.29-4.76,16.36,8,24.23,21.7,23.79,10.4,7.13,25.12,13.37,45.48,1.48,22.83-.25,36.87-5.1,56.76-12.08,39.44-14.22,74.53-34.83,92.44-63.84,9-13.77,13.48-31.1,5.1-42.78-8.26-11.31-22.17-15.74-33.53-18.1-23.73-4.11-42.61,2.48-55.26,5.39C416.52,164.07,416.07,162.29,427.2,153.17Z" transform="translate(-280.41 -145.38)"/>
  <g>
    <path class="cls-2" d="M633.18,262.22l-6.26-10.8h-9.17v10.8h-5.38V229.78H628.6a10.82,10.82,0,0,1,4.11,20.8l6.69,11.64Zm-4.58-27H617.75V246l10.85.05a5.4,5.4,0,0,0,0-10.8Z" transform="translate(-280.41 -145.38)"/>
    <path class="cls-2" d="M669.46,256.8H654.54l-2.76,5.42h-6L662,229.78l16.22,32.44h-6Zm-12.25-5.38h9.53L662,241.89Z" transform="translate(-280.41 -145.38)"/>
    <path class="cls-2" d="M697.56,229.78a15.74,15.74,0,0,1,6.29,1.26,16.54,16.54,0,0,1,5.16,3.5l-3.83,3.84a10.39,10.39,0,0,0-7.62-3.18,10.59,10.59,0,0,0-4.21.84,10.71,10.71,0,0,0-3.44,2.32,11.22,11.22,0,0,0-2.34,3.43,10.73,10.73,0,0,0,0,8.42,11.35,11.35,0,0,0,2.32,3.43,10.35,10.35,0,0,0,3.43,2.32,10.8,10.8,0,0,0,4.24.84,10.56,10.56,0,0,0,7.62-3.13l3.83,3.79a16.54,16.54,0,0,1-5.16,3.5,16.29,16.29,0,0,1-12.61,0,17,17,0,0,1-5.16-3.48,16.46,16.46,0,0,1-3.51-5.15,16,16,0,0,1,0-12.55,16.61,16.61,0,0,1,8.67-8.7A15.59,15.59,0,0,1,697.56,229.78Z" transform="translate(-280.41 -145.38)"/>
    <path class="cls-2" d="M740.34,229.78h6.87l-13.32,17v15.43h-5.38V247.08L715,229.78h6.92l9.21,11.82Z" transform="translate(-280.41 -145.38)"/>
    <path class="cls-2" d="M776.15,242.82v19.4h-5.37V229.78L787,246l16.27-16.22v32.44H797.8v-19.4L787,253.67Z" transform="translate(-280.41 -145.38)"/>
    <path class="cls-2" d="M812.62,229.78H818v32.44h-5.38Z" transform="translate(-280.41 -145.38)"/>
    <path class="cls-2" d="M827.35,229.73,849,249.18V229.73h5.43v32.49l-21.65-19.45v19.41h-5.38Z" transform="translate(-280.41 -145.38)"/>
    <path class="cls-2" d="M863.73,229.78h10.8a15.41,15.41,0,0,1,6.26,1.28,16.66,16.66,0,0,1,8.68,8.67,16,16,0,0,1,0,12.54,16.85,16.85,0,0,1-3.49,5.16,16.39,16.39,0,0,1-5.16,3.51,15.62,15.62,0,0,1-6.29,1.28h-10.8Zm10.8,27a10.58,10.58,0,0,0,7.64-3.18,11.19,11.19,0,0,0,2.32-3.46,10.72,10.72,0,0,0,0-8.32,11,11,0,0,0-5.8-5.8,10.48,10.48,0,0,0-4.16-.84H869.1v21.6Z" transform="translate(-280.41 -145.38)"/>
  </g>
</svg>
